<?xml version="1.0" encoding="UTF-8" standalone="no"?>
<svg
   viewBox="0 0 128 128"
   version="1.1"
   id="svg4"
   xmlns="http://www.w3.org/2000/svg"
   xmlns:svg="http://www.w3.org/2000/svg">
  <defs
     id="defs8" />
  <path
     fill="#1572b6"
     d="m 23.377397,17.599769 7.394285,83.012331 33.179047,9.25113 33.271706,-9.28496 7.400165,-82.978501 z m 65.883773,19.018497 -2.46133,27.654109 0.0074,0.149283 -0.01029,0.343424 v -0.0029 L 85.048156,84.098323 84.855485,85.81618 64,91.58453 v 7.36e-4 L 63.98382,91.599236 43.16437,85.79853 41.754639,69.812021 h 10.209334 l 0.724353,8.128933 11.314616,3.066551 -0.0029,0.0059 v -0.0015 l 11.35649,-3.109926 1.200147,-13.237645 H 52.816283 L 52.612581,62.426561 52.148554,57.18401 51.905142,54.368961 H 77.458995 L 78.38852,44.073587 H 39.467595 l -0.203701,-2.236302 -0.463292,-5.244022 -0.244147,-2.815049 h 50.948127 z"
     id="path2"
     style="stroke-width:0.735384" />
</svg>
