<svg width="128" height="128" viewBox="0 0 128 128" fill="none" xmlns="http://www.w3.org/2000/svg">
<rect width="128" height="128" fill="#2C2E34"/>
<path d="M45.4984 52.8227H45.4474V47.6282H41.5676V80.0811H45.4474V71.0293C46.6534 71.0301 47.8662 71.2826 49.072 71.3358C51.1483 71.4274 53.2313 71.0881 55.0959 70.1422C59.973 67.6681 61.8077 61.844 61.7835 56.7315C61.7714 54.1669 61.2338 51.4386 59.4776 49.4797C58.9081 48.8445 58.2262 48.2929 57.4953 47.8572C54.1695 45.8748 50.0506 47.6203 47.5405 50.1483C46.7927 50.9014 45.9225 51.8327 45.4984 52.8227Z" fill="#FDA703"/>
<path d="M64.9602 47.9522C65.1296 48.529 65.4763 49.0535 65.7307 49.5966C66.3539 50.9264 67.0237 52.236 67.6741 53.5534C69.5064 57.2633 71.3349 60.9777 73.1315 64.7043C73.7693 66.0274 74.4344 67.338 75.0723 68.6611C75.3188 69.1726 75.7982 69.7923 75.8785 70.3568C75.9184 70.6354 75.6823 70.9793 75.5795 71.2304C75.2658 71.9973 74.8986 72.7305 74.4648 73.44C74.0216 74.1655 73.5716 74.9247 72.9809 75.5469C72.5539 75.997 72.1007 76.4455 71.5694 76.7774C69.3726 78.1501 66.9309 77.8309 64.5405 77.294V80.7369C67.3316 81.09 70.1641 81.2829 72.7758 80.0036C75.3823 78.727 76.9517 76.2026 78.2447 73.7483C80.6382 69.205 82.4242 64.3297 84.4427 59.617C85.5348 57.068 86.6033 54.5094 87.6948 51.9604C88.0541 51.122 88.403 50.279 88.7665 49.4424C88.9726 48.9685 89.2616 48.4615 89.3513 47.9522H86.5188C86.234 47.9522 85.6843 47.8494 85.4377 48.0051C85.1419 48.1921 85.0129 48.8778 84.878 49.1855C84.4081 50.2561 83.9821 51.3457 83.5284 52.4229C82.2747 55.3994 81.0232 58.3778 79.7942 61.3642C79.2534 62.6775 78.4598 64.0468 78.1262 65.4237H78.0212L77.2475 63.8307L75.8843 61.1072L71.635 52.577L69.9826 49.2883L69.2803 48.0051L68.1074 47.9522H64.9602Z" fill="#FDA703"/>
<path d="M14 60.2983C14.4725 60.6907 15.1661 60.9216 15.7152 61.1967L19.0416 62.8637L29.8524 68.2814C31.4674 69.0907 33.0709 69.9203 34.6861 70.7297C35.3849 71.0799 36.2027 71.6732 36.973 71.8108V69.2583L36.9195 68.2367L35.7256 67.5784L32.711 66.0677L24.7588 62.0566L21.2765 60.2983L24.7588 58.5663L32.659 54.633L35.7256 53.0966L36.9195 52.4512L36.973 51.4425V48.8378C36.1694 48.9814 35.3114 49.6056 34.5821 49.971L29.4886 52.5236L19.1975 57.6808C17.4736 58.5447 15.6642 59.3248 14 60.2983Z" fill="#FDA703"/>
<path d="M91.2203 48.8378V51.3904C91.2203 51.6634 91.1225 52.1748 91.2738 52.4119C91.4627 52.7082 92.1088 52.8904 92.4168 53.0445L95.3821 54.5288C98.0035 55.8413 100.616 57.1751 103.237 58.4879C104.405 59.0723 105.624 59.9361 106.879 60.2983V60.4025C105.531 60.7913 104.181 61.6884 102.925 62.317L95.33 66.1198C94.416 66.5775 93.5108 67.0809 92.5728 67.4871C92.2311 67.635 91.4783 67.8638 91.2738 68.1846C91.1225 68.4218 91.2203 68.9331 91.2203 69.2062V71.8108L94.0815 70.4172L99.6999 67.6042L109.272 62.8116L114.162 60.3504C113.639 59.821 112.643 59.5245 111.977 59.1915L107.191 56.7952L96.4745 51.4296L93.041 49.7105C92.4563 49.4177 91.8492 49.0193 91.2203 48.8378Z" fill="#FDA703"/>
<path d="M45.2865 67.6364C47.9582 68.2094 50.6585 68.6013 53.0946 66.9897C56.3733 64.8207 57.4039 60.5663 57.1533 56.7674C57.0322 54.9317 56.664 53.0665 55.3462 51.7249C52.7964 49.1291 49.4046 51.9049 47.6102 54.0631C47.2614 54.4825 46.9373 54.9183 46.6194 55.3632C46.1699 55.9922 45.5896 56.7521 45.335 57.4955C45.1622 57.9999 45.2865 58.7314 45.2865 59.2636V67.6364Z" fill="#2C2E34"/>
</svg>
